<svg id="Camada_1" data-name="Camada 1" xmlns="http://www.w3.org/2000/svg" xmlns:xlink="http://www.w3.org/1999/xlink" viewBox="0 0 561.5 244.97">

<defs>
<linearGradient id="linear-gradient" x1="344" y1="424" x2="344" y2="380" gradientUnits="userSpaceOnUse"><stop offset="0" stop-color="#fff"/><stop offset="0.29" stop-color="#fff"/><stop offset="0.44" stop-color="#cdcdcd"/><stop offset="0.57" stop-color="#a6a6a6"/><stop offset="0.67" stop-color="#8f8f8f"/><stop offset="0.73" stop-color="#868686"/><stop offset="1" stop-color="#c6c6c5"/></linearGradient><linearGradient id="linear-gradient-2" x1="328.26" y1="165.81" x2="328.26" y2="79.16" xlink:href="#linear-gradient"/><linearGradient id="linear-gradient-3" x1="404.5" y1="165.81" x2="404.5" y2="79.16" xlink:href="#linear-gradient"/><linearGradient id="linear-gradient-4" x1="469.68" y1="165.81" x2="469.68" y2="79.16" xlink:href="#linear-gradient"/><linearGradient id="linear-gradient-5" x1="534.91" y1="165.81" x2="534.91" y2="79.16" xlink:href="#linear-gradient"/><linearGradient id="linear-gradient-6" x1="534.43" y1="401.57" x2="534.43" y2="367.77" xlink:href="#linear-gradient"/></defs><path d="M160.26,370.41H123.71l37.21-93.58,18.28,45.91Zm68.7,0-52.51-132H213l44.37,111.53a122.29,122.29,0,1,0-11,20.47Z" transform="translate(-21.98 -179.83)" fill="url(#linear-gradient)"/><polygon points="327.87 93.8 327.43 93.8 304.53 165.81 289.12 165.81 319.06 79.16 336.79 79.16 367.4 165.81 350.44 165.81 327.87 93.8" fill="url(#linear-gradient-2)"/><polygon points="378.19 79.16 394.15 79.16 394.15 151.94 430.81 151.94 430.81 165.81 378.19 165.81 378.19 79.16" fill="url(#linear-gradient-3)"/><polygon points="443.37 79.16 459.22 79.16 459.22 151.94 495.99 151.94 495.99 165.81 443.37 165.81 443.37 79.16" fill="url(#linear-gradient-4)"/><polygon points="508.32 79.16 560.51 79.16 560.51 93.03 524.18 93.03 524.18 114.72 555.34 114.72 555.34 128.59 524.18 128.59 524.18 151.94 561.5 151.94 561.5 165.81 508.32 165.81 508.32 79.16" fill="url(#linear-gradient-5)"/><path d="M485.93,399.48c2,1.21,6.17,2.09,9.47,2.09,7.16,0,11.23-4.62,11.23-13.87,0-7.38-3.52-11.56-9.47-11.56a8.21,8.21,0,0,0-5.61,2.09V367.77h-5.62Zm5.62-15.63c0-2.1,2-3.53,4.18-3.53,4.41,0,5.29,4.41,5.29,8.15,0,6.5-2.09,9-5.4,9a8.88,8.88,0,0,1-4.07-1ZM531,377.79a29.1,29.1,0,0,0-8.47-1.65c-8.15,0-12.33,5.39-12.33,13.76,0,6.83,2.53,11.56,9.24,11.56a7.69,7.69,0,0,0,6.5-3.19h.22l.33,2.53h4.95l-.44-4.51Zm-5.61,15.52a4.35,4.35,0,0,1-4.62,4.08c-4.08,0-5-3.74-5-7.71,0-5.17,1.43-9.36,6-9.36a9.7,9.7,0,0,1,3.63.66Zm17.28,7.49V385.39a4.83,4.83,0,0,1,4.85-4.85c3,0,3.52,2.21,3.52,5.18V400.8h5.73V384.51c0-5.62-2.87-8.37-7.6-8.37a8.54,8.54,0,0,0-7.38,3.74l-.44-3h-4.73l.33,4.07V400.8Zm25.44-33h-5.51v33h5l5.17-8.59,4.08,8.59h5.94l-6.28-13.21,6.5-10.68H577l-8.59,14.64h-.33Z" transform="translate(-21.98 -179.83)" fill="url(#linear-gradient-6)"/></svg>