<?xml version="1.0" standalone="no"?>
<!DOCTYPE svg PUBLIC "-//W3C//DTD SVG 20010904//EN"
 "http://www.w3.org/TR/2001/REC-SVG-20010904/DTD/svg10.dtd">
<svg version="1.0" xmlns="http://www.w3.org/2000/svg"
 width="96.000000pt" height="96.000000pt" viewBox="0 0 96.000000 96.000000"
 preserveAspectRatio="xMidYMid meet">
<metadata>
Created by potrace 1.14, written by Peter Selinger 2001-2017
</metadata>
<g transform="translate(0.000000,96.000000) scale(0.100000,-0.100000)"
fill="#000000" stroke="none">
<path d="M176 873 c-28 -8 -87 -47 -113 -74 -63 -68 -77 -183 -34 -271 13 -27
97 -119 231 -253 l210 -210 143 143 c78 78 147 142 152 142 5 0 38 -28 72 -62
l63 -62 25 24 26 24 -68 68 -67 67 48 51 c58 62 78 109 78 181 0 142 -124 251
-268 236 -64 -7 -103 -26 -155 -78 -21 -21 -43 -39 -47 -39 -5 0 -21 14 -38
31 -51 54 -109 81 -177 85 -34 1 -71 0 -81 -3z m149 -88 c22 -13 53 -37 69
-53 l28 -30 -123 -122 -123 -122 -39 43 c-51 55 -68 97 -62 150 17 129 141
196 250 134z m451 4 c77 -37 114 -134 83 -216 -5 -15 -29 -47 -52 -71 l-41
-42 -122 121 -122 122 41 40 c73 68 138 83 213 46z m-183 -501 l-122 -122
-122 121 -121 122 122 121 123 122 121 -121 121 -121 -122 -122z"/>
<path d="M423 578 c-36 -37 -40 -45 -29 -60 12 -16 14 -16 29 -1 15 15 18 15
34 1 16 -14 20 -14 31 -1 12 13 16 12 32 -2 16 -14 18 -14 30 0 11 13 10 19
-5 33 -13 13 -19 14 -22 5 -6 -17 -28 -16 -42 1 -9 10 -8 16 3 25 16 14 11 41
-8 41 -7 0 -30 -19 -53 -42z"/>
<path d="M300 455 l-44 -45 46 -47 47 -47 62 62 c59 59 62 63 46 79 -16 16
-18 16 -30 0 -11 -17 -15 -16 -42 13 -16 16 -31 30 -35 30 -3 0 -26 -20 -50
-45z m74 -40 c8 -23 -18 -37 -39 -21 -16 12 -17 16 -6 29 14 17 37 13 45 -8z"/>
<path d="M534 441 c-53 -53 -58 -61 -47 -77 12 -17 14 -17 30 -1 16 16 19 15
48 -13 l32 -31 45 45 45 45 -43 46 c-24 25 -45 45 -47 45 -1 0 -30 -27 -63
-59z m75 -47 c-14 -14 -17 -14 -29 0 -10 13 -10 19 0 32 12 14 15 14 29 0 14
-15 14 -17 0 -32z"/>
<path d="M423 330 c-11 -16 -10 -21 4 -29 17 -9 17 -10 0 -29 -16 -17 -16 -20
-2 -32 13 -11 20 -9 44 14 24 23 32 26 49 17 27 -15 51 11 32 34 -12 14 -15
14 -31 -1 -16 -14 -19 -13 -47 15 -35 37 -34 36 -49 11z"/>
</g>
</svg>
